<svg version="1.2" xmlns="http://www.w3.org/2000/svg" viewBox="0 0 800 800" width="32" height="32">
	<title>Icon KantorHukum</title>
	<style>
		.s0 { fill: #0a1931 } 
		.s1 { fill: #f8f8f8 } 
		.s2 { fill: #5889d7 } 
	</style>
	<path id="Shape 8" class="s0" d="m374 753c-199.1 0-360-158-360-353.5 0-195.5 160.9-353.5 360-353.5 199.1 0 360 158 360 353.5 0 195.5-160.9 353.5-360 353.5z"/>
	<path id="Shape 8 copy" class="s1" d="m416 753c-199.1 0-360-158-360-353.5 0-195.5 160.9-353.5 360-353.5 199.1 0 360 158 360 353.5 0 195.5-160.9 353.5-360 353.5z"/>
	<path id="Shape 3" class="s2" d="m290.4 281.7c-49.7 20.9-93.2 29.8-97.4 20-4.1-9.9 32.8-34.7 82.5-55.5 49.7-20.9 93.2-29.8 97.3-20 4.1 9.8-32.7 34.6-82.4 55.5z"/>
	<path id="Shape 3 copy" class="s2" d="m371 445.3c-49.7 20.9-93.2 29.8-97.3 20-4.1-9.8 32.7-34.6 82.4-55.5 49.7-20.9 93.3-29.8 97.4-20 4.1 9.9-32.7 34.7-82.5 55.5z"/>
	<path id="Shape 4" class="s2" d="m213.7 321.5l165.8-69.6 49.2 117.3-165.8 69.6z"/>
	<path id="Shape 5" class="s2" d="m423 285.8l216.4-90.8 12.7 30.1-216.4 90.8z"/>
	<path id="Shape 6" class="s2" d="m147.9 564h449.3v47.9h-449.3z"/>
	<path id="Shape 7" class="s2" d="m378.6 593.9c-150.8 0-272.6-17.4-272.6-38.9 0-21.5 121.8-38.9 272.6-38.9 150.7 0 272.5 17.4 272.5 38.9 0 21.5-121.8 38.9-272.5 38.9z"/>
	<path id="Shape 3 copy 2" class="s0" d="m332.3 275.7c-49.7 20.9-93.2 29.8-97.3 20-4.1-9.9 32.7-34.7 82.4-55.5 49.7-20.9 93.2-29.8 97.4-20 4.1 9.8-32.8 34.6-82.5 55.5z"/>
	<path id="Shape 3 copy 3" class="s0" d="m413 439.3c-49.7 20.9-93.3 29.8-97.4 20-4.1-9.8 32.8-34.6 82.5-55.5 49.7-20.8 93.2-29.8 97.3-19.9 4.1 9.8-32.7 34.6-82.4 55.4z"/>
	<path id="Shape 4 copy" class="s0" d="m255.6 315.5l165.8-69.6 49.2 117.3-165.7 69.6z"/>
	<path id="Shape 5 copy" class="s0" d="m465 279.8l216.4-90.8 12.6 30.1-216.4 90.9z"/>
	<path id="Shape 6 copy" class="s0" d="m189.9 558h449.3v47.9h-449.3z"/>
	<path id="Shape 7 copy" class="s0" d="m420.5 588c-150.7 0-272.6-17.4-272.6-39 0-21.5 121.9-38.9 272.6-38.9 150.7 0 272.6 17.4 272.6 38.9 0 21.6-121.9 39-272.6 39z"/>
</svg>